<svg id="eeJp6AwsCiI1" xmlns="http://www.w3.org/2000/svg" xmlns:xlink="http://www.w3.org/1999/xlink" viewBox="0 0 183 110.81" shape-rendering="geometricPrecision" text-rendering="geometricPrecision"><defs><linearGradient id="eeJp6AwsCiI2-stroke" x1="0" y1="0.5" x2="1" y2="0.5" spreadMethod="pad" gradientUnits="objectBoundingBox" gradientTransform="translate(0 0)"><stop id="eeJp6AwsCiI2-stroke-0" offset="0%" stop-color="#00cdc6"/><stop id="eeJp6AwsCiI2-stroke-1" offset="100%" stop-color="#005ac5"/></linearGradient></defs><path d="M334.244287,224.29239c0,0,.00001,0,.00001,0h141.402198c0,0,.00001,0,.00001,0c2.76142,0,5,2.238492,5,4.999826h.00001v80.681646h-.00001c0,2.761324-2.23858,4.999817-5,4.999817c0,0-.00001,0-.00001,0h-141.402198c0,0-.00001,0-.00001,0-2.76142,0-4.999999-2.238492-4.999999-4.999817h-.00001v-80.681646h.00001c0-2.761324,2.23858-4.999826,4.999999-4.999826Z" transform="matrix(1.188886 0 0 1.188889-389.933911-265.158752)" fill="none" stroke="url(#eeJp6AwsCiI2-stroke)" stroke-width="3" stroke-linecap="round"/></svg>